<svg xmlns="http://www.w3.org/2000/svg" viewBox="0 0 30 20">
  <rect width="30" height="20" fill="#FFFFFF"/>
  <path fill="#B22234" d="M0 0h30v1.54H0zm0 3.08h30v1.54H0zm0 3.08h30V7.7H0zm0 3.08h30v1.54H0zm0 3.08h30v1.54H0zm0 3.08h30v1.54H0zm0 3.08h30V20H0z"/>
  <rect width="12.5" height="10.77" fill="#3C3B6E"/>
  <g fill="#FFFFFF">
    <circle cx="2" cy="2" r=".55"/><circle cx="5" cy="2" r=".55"/><circle cx="8" cy="2" r=".55"/><circle cx="11" cy="2" r=".55"/>
    <circle cx="3.5" cy="4.5" r=".55"/><circle cx="6.5" cy="4.5" r=".55"/><circle cx="9.5" cy="4.5" r=".55"/>
    <circle cx="2" cy="7" r=".55"/><circle cx="5" cy="7" r=".55"/><circle cx="8" cy="7" r=".55"/><circle cx="11" cy="7" r=".55"/>
    <circle cx="3.5" cy="9.3" r=".55"/><circle cx="6.5" cy="9.3" r=".55"/><circle cx="9.5" cy="9.3" r=".55"/>
  </g>
</svg>
